<?xml version="1.0" standalone="no"?>
<!DOCTYPE svg PUBLIC "-//W3C//DTD SVG 20010904//EN"
 "http://www.w3.org/TR/2001/REC-SVG-20010904/DTD/svg10.dtd">
<svg version="1.0" xmlns="http://www.w3.org/2000/svg"
 width="500.000000pt" height="162.000000pt" viewBox="0 0 500.000000 162.000000"
 preserveAspectRatio="xMidYMid meet">

<g transform="translate(0.000000,162.000000) scale(0.100000,-0.100000)"
fill="#000000" stroke="none">
<path d="M565 1580 c-8 -12 7 -33 48 -68 15 -13 27 -29 27 -36 0 -6 -24 -36
-54 -65 l-55 -54 -45 49 c-36 40 -47 47 -57 36 -11 -10 -5 -21 34 -59 l47 -48
-57 -57 -57 -58 -48 47 c-38 37 -50 45 -60 35 -10 -10 -2 -22 35 -60 l47 -48
-58 -57 -57 -57 -48 47 c-37 37 -49 45 -59 35 -10 -10 -2 -22 35 -60 l47 -48
-53 -52 c-29 -29 -57 -52 -62 -52 -5 0 -29 19 -52 42 -32 31 -46 39 -54 31 -9
-9 0 -23 35 -56 l47 -44 -26 -39 c-33 -48 -28 -85 17 -131 31 -32 31 -33 13
-55 -11 -13 -30 -34 -43 -47 -17 -17 -21 -26 -13 -34 8 -8 24 1 56 33 l45 44
57 -57 57 -57 -44 -45 c-34 -35 -41 -48 -32 -57 9 -9 22 -2 57 32 l45 44 57
-57 57 -57 -42 -43 c-71 -73 -48 -96 25 -25 l43 42 56 -56 57 -56 -43 -46
c-32 -34 -40 -50 -32 -58 8 -8 22 0 52 31 22 22 44 41 48 41 16 0 117 -111
107 -118 -35 -25 -78 -83 -69 -92 7 -7 23 3 49 30 21 22 43 40 48 40 5 0 20
-9 34 -20 33 -26 77 -25 114 1 l29 20 30 -21 c17 -12 30 -25 30 -30 0 -11 39
-24 48 -16 3 4 -14 27 -38 51 l-44 45 56 57 57 57 46 -43 c34 -32 50 -40 58
-32 8 8 -1 23 -33 56 l-44 45 57 57 57 57 45 -44 c35 -34 48 -41 57 -32 9 9 2
22 -32 57 l-44 45 57 57 57 57 42 -41 c30 -29 47 -40 57 -34 10 7 4 18 -28 51
-22 23 -41 45 -41 49 0 4 25 31 55 61 l55 54 43 -42 c23 -23 46 -42 50 -42 19
0 3 34 -28 61 -41 36 -43 49 -14 75 35 30 51 78 38 111 -6 15 -17 36 -26 45
-14 15 -11 21 26 59 38 40 52 69 33 69 -4 0 -26 -18 -47 -40 -21 -22 -44 -40
-50 -40 -6 0 -34 24 -63 53 l-53 53 46 49 c33 34 43 51 35 59 -7 7 -24 -3 -57
-37 l-48 -47 -57 57 -58 57 47 48 c37 38 45 50 35 60 -10 10 -22 2 -60 -35
l-48 -47 -57 58 -57 57 45 45 c30 30 42 49 36 58 -6 10 -21 1 -58 -32 l-50
-45 -56 57 -57 58 45 44 c25 24 45 48 45 52 0 21 -35 4 -71 -34 l-39 -42 -34
33 c-22 22 -47 34 -73 38 -36 5 -45 1 -83 -33 l-42 -38 -22 24 c-45 51 -74 72
-81 60z m582 -383 c268 -267 343 -348 343 -367 0 -37 -677 -713 -709 -708 -12
2 -167 148 -361 343 -268 268 -340 345 -340 365 0 20 72 98 343 368 216 215
350 342 362 342 12 0 146 -127 362 -343z"/>
<path d="M738 1398 c-21 -26 -23 -38 -5 -38 12 0 67 46 67 55 0 15 -48 1 -62
-17z"/>
<path d="M840 1347 c0 -15 45 -57 60 -57 18 0 11 26 -13 48 -26 25 -47 29 -47
9z"/>
<path d="M635 1293 c-28 -31 -31 -43 -12 -43 16 0 57 42 57 58 0 20 -18 14
-45 -15z"/>
<path d="M950 1237 c0 -16 42 -57 58 -57 20 0 14 25 -11 48 -26 25 -47 29 -47
9z"/>
<path d="M526 1184 c-29 -29 -33 -44 -13 -44 16 0 57 42 57 58 0 19 -15 14
-44 -14z"/>
<path d="M1060 1129 c0 -15 42 -59 58 -59 19 0 14 25 -11 48 -25 24 -47 29
-47 11z"/>
<path d="M417 1074 c-26 -26 -36 -54 -19 -54 5 0 21 14 37 30 38 40 21 63 -18
24z"/>
<path d="M1170 1021 c0 -16 41 -61 56 -61 21 0 17 24 -9 48 -24 22 -47 29 -47
13z"/>
<path d="M300 958 c-20 -22 -27 -48 -12 -48 10 0 62 53 62 63 0 15 -30 6 -50
-15z"/>
<path d="M1285 910 c-7 -11 38 -60 55 -60 18 0 11 26 -13 48 -26 25 -33 27
-42 12z"/>
<path d="M194 846 c-7 -29 1 -46 22 -46 11 0 13 6 9 19 -3 11 -1 22 5 26 17
10 11 25 -10 25 -12 0 -22 -9 -26 -24z"/>
<path d="M1292 773 c-17 -18 -21 -28 -13 -36 8 -8 19 -3 41 18 28 27 31 46 7
44 -7 -1 -22 -12 -35 -26z"/>
<path d="M275 750 c-12 -20 43 -76 60 -59 6 6 -2 20 -22 40 -21 21 -33 27 -38
19z"/>
<path d="M1180 665 c-19 -19 -22 -27 -12 -37 9 -9 18 -6 42 17 28 27 31 46 7
44 -7 0 -23 -11 -37 -24z"/>
<path d="M387 643 c-12 -11 -8 -21 18 -48 28 -28 45 -32 45 -12 0 17 -54 69
-63 60z"/>
<path d="M1076 554 c-29 -29 -33 -44 -13 -44 16 0 57 42 57 58 0 19 -15 14
-44 -14z"/>
<path d="M490 523 c0 -10 52 -63 62 -63 16 0 8 27 -15 48 -23 21 -47 29 -47
15z"/>
<path d="M966 449 c-28 -22 -35 -49 -13 -49 16 0 57 42 57 58 0 18 -14 15 -44
-9z"/>
<path d="M600 413 c0 -10 52 -63 62 -63 16 0 8 27 -15 48 -23 21 -47 29 -47
15z"/>
<path d="M855 333 c-28 -31 -31 -43 -12 -43 16 0 57 42 57 58 0 20 -18 14 -45
-15z"/>
<path d="M710 303 c0 -5 11 -21 25 -37 16 -19 30 -26 41 -22 15 6 13 10 -11
36 -27 28 -55 39 -55 23z"/>
<path d="M3188 1209 c-16 -9 -18 -33 -18 -267 0 -300 3 -326 37 -341 59 -27
67 -3 64 200 -3 162 -2 167 20 188 54 51 71 15 79 -171 3 -81 8 -150 11 -153
3 -2 14 1 24 9 16 12 19 27 19 114 0 82 -4 110 -24 161 -20 50 -29 61 -53 67
-17 3 -36 0 -51 -10 -13 -8 -26 -12 -30 -9 -3 4 -6 34 -6 67 -1 74 -14 136
-32 147 -16 11 -19 11 -40 -2z"/>
<path d="M1763 1199 c-6 -6 -26 -14 -45 -18 l-33 -7 3 -60 c1 -32 6 -162 11
-287 5 -126 12 -231 15 -234 3 -3 19 0 36 7 49 20 63 60 66 185 l3 110 28 9
c43 14 82 44 99 78 31 59 -3 174 -60 209 -34 21 -106 25 -123 8z m101 -20 c51
-40 72 -120 45 -172 -15 -29 -79 -87 -96 -87 -9 0 -13 14 -13 41 0 22 -11 74
-25 115 -19 55 -23 80 -15 94 19 35 65 39 104 9z"/>
<path d="M3500 983 c0 -212 13 -399 28 -415 4 -3 30 -2 57 4 28 5 88 13 135
17 l85 8 -82 1 c-53 1 -85 6 -90 15 -4 6 -8 118 -8 247 0 160 -4 248 -13 276
-13 46 -47 74 -87 74 l-25 0 0 -227z"/>
<path d="M2506 1133 c-15 -136 -13 -131 -59 -138 -69 -12 -79 -25 -17 -23 l55
3 6 -150 c3 -83 11 -163 18 -180 26 -62 85 -105 143 -105 46 1 68 21 74 67 3
21 9 54 14 73 12 42 12 50 2 50 -4 0 -15 -23 -25 -51 -10 -28 -33 -67 -51 -87
l-33 -36 -14 25 c-11 18 -14 70 -14 209 l0 185 55 10 55 10 -56 3 -56 3 -10
79 c-12 87 -24 110 -58 110 -20 0 -23 -6 -29 -57z"/>
<path d="M4856 1117 c-13 -10 -18 -34 -23 -121 l-6 -108 -44 -19 c-98 -42
-123 -121 -59 -185 24 -24 43 -34 65 -34 27 0 31 -3 31 -27 1 -114 33 -135 77
-50 l28 52 0 236 c0 185 -3 239 -14 252 -16 20 -31 21 -55 4z m-36 -322 c0
-60 -2 -66 -25 -77 -36 -16 -55 4 -55 57 0 35 5 48 26 64 45 36 54 28 54 -44z"/>
<path d="M4303 1068 c-13 -16 -25 -329 -15 -381 8 -46 51 -79 79 -61 59 37 91
180 71 313 -12 72 -11 74 11 92 28 23 54 24 75 3 16 -15 20 -77 21 -346 0 -47
3 -89 6 -92 11 -11 36 4 47 28 17 39 0 335 -24 391 -20 48 -67 59 -125 30 -29
-15 -31 -15 -60 10 -33 27 -71 33 -86 13z"/>
<path d="M2924 1050 c-32 -13 -84 -85 -100 -137 -20 -67 -18 -137 6 -184 26
-51 99 -99 151 -99 54 0 77 25 99 105 21 79 19 94 -6 42 -10 -21 -29 -41 -46
-48 -24 -10 -32 -9 -49 7 -31 28 -59 88 -59 126 0 41 30 106 59 133 29 25 52
11 67 -41 l11 -38 6 33 c8 37 -12 85 -42 101 -23 12 -68 12 -97 0z"/>
<path d="M2256 1041 c-3 -4 -8 -65 -11 -135 -5 -134 -16 -169 -58 -182 -32
-10 -47 20 -47 96 0 37 7 90 16 119 12 43 21 55 45 64 34 13 38 27 9 27 -32 0
-95 -36 -123 -70 -29 -34 -57 -116 -57 -167 0 -45 21 -92 56 -124 40 -37 68
-43 106 -25 17 9 32 16 34 16 2 0 4 -24 6 -52 l3 -53 46 -3 c36 -2 49 1 65 19
17 18 19 39 22 169 4 161 -8 232 -49 283 -20 26 -53 36 -63 18z"/>
<path d="M4096 1041 c-3 -5 -8 -64 -11 -131 -6 -130 -19 -174 -55 -185 -38
-12 -50 11 -50 94 0 102 23 170 61 185 33 12 38 26 10 26 -83 0 -167 -96 -178
-205 -7 -69 10 -116 58 -159 43 -40 60 -43 103 -21 15 8 30 15 33 15 2 0 3
-19 2 -43 -2 -24 1 -48 5 -55 11 -19 81 -14 107 7 23 18 24 26 27 170 3 132 1
159 -17 213 -11 33 -28 69 -37 80 -18 19 -49 24 -58 9z"/>
</g>
</svg>
